<svg xmlns="http://www.w3.org/2000/svg" viewBox="0 0 600 300" fill="none">
  <defs>
    <linearGradient id="podGrad" x1="0%" y1="0%" x2="100%" y2="100%">
      <stop offset="0%" stop-color="#0F172A" />
      <stop offset="50%" stop-color="#1E1B4B" />
      <stop offset="100%" stop-color="#090D16" />
    </linearGradient>
    <linearGradient id="neonGlow" x1="0%" y1="0%" x2="100%" y2="0%">
      <stop offset="0%" stop-color="#8B5CF6" />
      <stop offset="50%" stop-color="#EC4899" />
      <stop offset="100%" stop-color="#3B82F6" />
    </linearGradient>
  </defs>

  <rect width="600" height="300" rx="24" fill="url(#podGrad)" stroke="#334155" stroke-width="2" />
  
  <!-- Ambient Waveform Graphic -->
  <path d="M 40 150 Q 80 80, 120 150 T 200 150 T 280 150 T 360 150 T 440 150 T 520 150" stroke="url(#neonGlow)" stroke-width="4" stroke-linecap="round" fill="none" opacity="0.4" />
  <path d="M 40 150 Q 80 200, 120 150 T 200 150 T 280 150 T 360 150 T 440 150 T 520 150" stroke="#3B82F6" stroke-width="2" stroke-linecap="round" fill="none" opacity="0.3" />

  <!-- Studio Mic Graphic -->
  <rect x="70" y="70" width="100" height="160" rx="20" fill="#1E293B" stroke="url(#neonGlow)" stroke-width="2" />
  <circle cx="120" cy="120" r="25" fill="#3B82F6" opacity="0.2" />
  <path d="M 120 95 L 120 145 M 100 120 L 140 120" stroke="#38BDF8" stroke-width="3" stroke-linecap="round" />

  <!-- Text Overlay -->
  <rect x="200" y="60" width="160" height="28" rx="8" fill="#8B5CF6" fill-opacity="0.2" stroke="#8B5CF6" stroke-width="1.5" />
  <text x="280" y="79" font-family="'Outfit', sans-serif" font-size="11" font-weight="800" fill="#C4B5FD" text-anchor="middle">CLOSETOOPEN PODCAST</text>

  <text x="200" y="130" font-family="'Outfit', sans-serif" font-size="22" font-weight="900" fill="#FFFFFF">Strategic Leadership Insights</text>
  <text x="200" y="160" font-family="'Inter', sans-serif" font-size="13" fill="#94A3B8">Hosted by Ram Kishor Jha • Enterprise Scaling</text>

  <!-- Tag Pills -->
  <rect x="200" y="195" width="110" height="28" rx="8" fill="#0F172A" stroke="#38BDF8" stroke-width="1" />
  <text x="255" y="213" font-family="'Inter', sans-serif" font-size="11" font-weight="700" fill="#38BDF8" text-anchor="middle">🎙️ 50+ Episodes</text>

  <rect x="320" y="195" width="130" height="28" rx="8" fill="#0F172A" stroke="#10B981" stroke-width="1" />
  <text x="385" y="213" font-family="'Inter', sans-serif" font-size="11" font-weight="700" fill="#34D399" text-anchor="middle">⭐ 4.9/5 Rating</text>
</svg>
